# Card3D Rounded Corners (no emboss)
# Size: X=1.0, Y=1.4, Z=0.12
# Corner radius: 0.12, segments/quarter: 10
o Card3D_RoundedCorners
v 0.380000 0.700000 0.060000
v 0.398772 0.698523 0.060000
v 0.417082 0.694127 0.060000
v 0.434479 0.686921 0.060000
v 0.450534 0.677082 0.060000
v 0.464853 0.664853 0.060000
v 0.477082 0.650534 0.060000
v 0.486921 0.634479 0.060000
v 0.494127 0.617082 0.060000
v 0.498523 0.598772 0.060000
v 0.500000 0.580000 0.060000
v 0.500000 -0.580000 0.060000
v 0.498523 -0.598772 0.060000
v 0.494127 -0.617082 0.060000
v 0.486921 -0.634479 0.060000
v 0.477082 -0.650534 0.060000
v 0.464853 -0.664853 0.060000
v 0.450534 -0.677082 0.060000
v 0.434479 -0.686921 0.060000
v 0.417082 -0.694127 0.060000
v 0.398772 -0.698523 0.060000
v 0.380000 -0.700000 0.060000
v -0.380000 -0.700000 0.060000
v -0.398772 -0.698523 0.060000
v -0.417082 -0.694127 0.060000
v -0.434479 -0.686921 0.060000
v -0.450534 -0.677082 0.060000
v -0.464853 -0.664853 0.060000
v -0.477082 -0.650534 0.060000
v -0.486921 -0.634479 0.060000
v -0.494127 -0.617082 0.060000
v -0.498523 -0.598772 0.060000
v -0.500000 -0.580000 0.060000
v -0.500000 0.580000 0.060000
v -0.498523 0.598772 0.060000
v -0.494127 0.617082 0.060000
v -0.486921 0.634479 0.060000
v -0.477082 0.650534 0.060000
v -0.464853 0.664853 0.060000
v -0.450534 0.677082 0.060000
v -0.434479 0.686921 0.060000
v -0.417082 0.694127 0.060000
v -0.398772 0.698523 0.060000
v -0.380000 0.700000 0.060000
v 0.380000 0.700000 -0.060000
v 0.398772 0.698523 -0.060000
v 0.417082 0.694127 -0.060000
v 0.434479 0.686921 -0.060000
v 0.450534 0.677082 -0.060000
v 0.464853 0.664853 -0.060000
v 0.477082 0.650534 -0.060000
v 0.486921 0.634479 -0.060000
v 0.494127 0.617082 -0.060000
v 0.498523 0.598772 -0.060000
v 0.500000 0.580000 -0.060000
v 0.500000 -0.580000 -0.060000
v 0.498523 -0.598772 -0.060000
v 0.494127 -0.617082 -0.060000
v 0.486921 -0.634479 -0.060000
v 0.477082 -0.650534 -0.060000
v 0.464853 -0.664853 -0.060000
v 0.450534 -0.677082 -0.060000
v 0.434479 -0.686921 -0.060000
v 0.417082 -0.694127 -0.060000
v 0.398772 -0.698523 -0.060000
v 0.380000 -0.700000 -0.060000
v -0.380000 -0.700000 -0.060000
v -0.398772 -0.698523 -0.060000
v -0.417082 -0.694127 -0.060000
v -0.434479 -0.686921 -0.060000
v -0.450534 -0.677082 -0.060000
v -0.464853 -0.664853 -0.060000
v -0.477082 -0.650534 -0.060000
v -0.486921 -0.634479 -0.060000
v -0.494127 -0.617082 -0.060000
v -0.498523 -0.598772 -0.060000
v -0.500000 -0.580000 -0.060000
v -0.500000 0.580000 -0.060000
v -0.498523 0.598772 -0.060000
v -0.494127 0.617082 -0.060000
v -0.486921 0.634479 -0.060000
v -0.477082 0.650534 -0.060000
v -0.464853 0.664853 -0.060000
v -0.450534 0.677082 -0.060000
v -0.434479 0.686921 -0.060000
v -0.417082 0.694127 -0.060000
v -0.398772 0.698523 -0.060000
v -0.380000 0.700000 -0.060000
v -0.000000 -0.000000 0.060000
v -0.000000 -0.000000 -0.060000
f 89 1 2
f 89 2 3
f 89 3 4
f 89 4 5
f 89 5 6
f 89 6 7
f 89 7 8
f 89 8 9
f 89 9 10
f 89 10 11
f 89 11 12
f 89 12 13
f 89 13 14
f 89 14 15
f 89 15 16
f 89 16 17
f 89 17 18
f 89 18 19
f 89 19 20
f 89 20 21
f 89 21 22
f 89 22 23
f 89 23 24
f 89 24 25
f 89 25 26
f 89 26 27
f 89 27 28
f 89 28 29
f 89 29 30
f 89 30 31
f 89 31 32
f 89 32 33
f 89 33 34
f 89 34 35
f 89 35 36
f 89 36 37
f 89 37 38
f 89 38 39
f 89 39 40
f 89 40 41
f 89 41 42
f 89 42 43
f 89 43 44
f 89 44 1
f 90 46 45
f 90 47 46
f 90 48 47
f 90 49 48
f 90 50 49
f 90 51 50
f 90 52 51
f 90 53 52
f 90 54 53
f 90 55 54
f 90 56 55
f 90 57 56
f 90 58 57
f 90 59 58
f 90 60 59
f 90 61 60
f 90 62 61
f 90 63 62
f 90 64 63
f 90 65 64
f 90 66 65
f 90 67 66
f 90 68 67
f 90 69 68
f 90 70 69
f 90 71 70
f 90 72 71
f 90 73 72
f 90 74 73
f 90 75 74
f 90 76 75
f 90 77 76
f 90 78 77
f 90 79 78
f 90 80 79
f 90 81 80
f 90 82 81
f 90 83 82
f 90 84 83
f 90 85 84
f 90 86 85
f 90 87 86
f 90 88 87
f 90 45 88
f 1 2 46 45
f 2 3 47 46
f 3 4 48 47
f 4 5 49 48
f 5 6 50 49
f 6 7 51 50
f 7 8 52 51
f 8 9 53 52
f 9 10 54 53
f 10 11 55 54
f 11 12 56 55
f 12 13 57 56
f 13 14 58 57
f 14 15 59 58
f 15 16 60 59
f 16 17 61 60
f 17 18 62 61
f 18 19 63 62
f 19 20 64 63
f 20 21 65 64
f 21 22 66 65
f 22 23 67 66
f 23 24 68 67
f 24 25 69 68
f 25 26 70 69
f 26 27 71 70
f 27 28 72 71
f 28 29 73 72
f 29 30 74 73
f 30 31 75 74
f 31 32 76 75
f 32 33 77 76
f 33 34 78 77
f 34 35 79 78
f 35 36 80 79
f 36 37 81 80
f 37 38 82 81
f 38 39 83 82
f 39 40 84 83
f 40 41 85 84
f 41 42 86 85
f 42 43 87 86
f 43 44 88 87
f 44 1 45 88
